<svg width="16" height="17" viewBox="0 0 16 17" fill="none" xmlns="http://www.w3.org/2000/svg">
<path d="M12.0467 7.38C11.92 7.38 11.7933 7.33333 11.6933 7.23333L7.99999 3.54L4.30665 7.23333C4.11332 7.42667 3.79332 7.42667 3.59999 7.23333C3.40665 7.04 3.40665 6.72 3.59999 6.52667L7.64665 2.48C7.83999 2.28667 8.15999 2.28667 8.35332 2.48L12.4 6.52667C12.5933 6.72 12.5933 7.04 12.4 7.23333C12.3067 7.33333 12.1733 7.38 12.0467 7.38Z" fill="#FFE174"/>
<path d="M8 14.6667C7.72667 14.6667 7.5 14.44 7.5 14.1667V2.94667C7.5 2.67333 7.72667 2.44667 8 2.44667C8.27333 2.44667 8.5 2.67333 8.5 2.94667V14.1667C8.5 14.44 8.27333 14.6667 8 14.6667Z" fill="#FFE174"/>
</svg>
