<svg width="24" height="25" viewBox="0 0 24 25" fill="none" xmlns="http://www.w3.org/2000/svg">
<path d="M15 23.25H9C3.57 23.25 1.25 20.93 1.25 15.5V9.5C1.25 4.07 3.57 1.75 9 1.75H11C11.41 1.75 11.75 2.09 11.75 2.5C11.75 2.91 11.41 3.25 11 3.25H9C4.39 3.25 2.75 4.89 2.75 9.5V15.5C2.75 20.11 4.39 21.75 9 21.75H15C19.61 21.75 21.25 20.11 21.25 15.5V13.5C21.25 13.09 21.59 12.75 22 12.75C22.41 12.75 22.75 13.09 22.75 13.5V15.5C22.75 20.93 20.43 23.25 15 23.25Z" fill="white"/>
<path d="M8.49999 18.19C7.88999 18.19 7.32999 17.97 6.91999 17.57C6.42999 17.08 6.21999 16.37 6.32999 15.62L6.75999 12.61C6.83999 12.03 7.21999 11.28 7.62999 10.87L15.51 2.99C17.5 0.999998 19.52 0.999998 21.51 2.99C22.6 4.08 23.09 5.19 22.99 6.3C22.9 7.2 22.42 8.08 21.51 8.98L13.63 16.86C13.22 17.27 12.47 17.65 11.89 17.73L8.87999 18.16C8.74999 18.19 8.61999 18.19 8.49999 18.19ZM16.57 4.05L8.68999 11.93C8.49999 12.12 8.27999 12.56 8.23999 12.82L7.80999 15.83C7.76999 16.12 7.82999 16.36 7.97999 16.51C8.12999 16.66 8.36999 16.72 8.65999 16.68L11.67 16.25C11.93 16.21 12.38 15.99 12.56 15.8L20.44 7.92C21.09 7.27 21.43 6.69 21.48 6.15C21.54 5.5 21.2 4.81 20.44 4.04C18.84 2.44 17.74 2.89 16.57 4.05Z" fill="white"/>
<path d="M19.85 10.33C19.78 10.33 19.71 10.32 19.65 10.3C17.02 9.56 14.93 7.47 14.19 4.84C14.08 4.44 14.31 4.03 14.71 3.91C15.11 3.8 15.52 4.03 15.63 4.43C16.23 6.56 17.92 8.25 20.05 8.85C20.45 8.96 20.68 9.38 20.57 9.78C20.48 10.12 20.18 10.33 19.85 10.33Z" fill="white"/>
</svg>
