<svg width="25" height="24" viewBox="0 0 25 24" fill="none" xmlns="http://www.w3.org/2000/svg">
<path d="M10.9177 3.15013L10.9181 3.14982C12.0023 2.27901 13.7425 2.28411 14.843 3.1607C14.8431 3.16081 14.8433 3.16091 14.8434 3.16102L21.3891 8.39753C21.3896 8.39799 21.3902 8.39846 21.3908 8.39892C21.768 8.70708 22.0947 9.18939 22.3054 9.74096C22.516 10.2921 22.5946 10.8698 22.5213 11.3509L21.2624 18.8844C21.2623 18.8849 21.2622 18.8854 21.2621 18.8859C21.0125 20.3188 19.6182 21.5 18.175 21.5H7.57499C6.11052 21.5 4.74753 20.3476 4.49797 18.8964C4.49791 18.8961 4.49785 18.8958 4.49779 18.8954L3.23816 11.3576L3.23796 11.3564C3.15582 10.8718 3.22955 10.2929 3.43968 9.74189C3.64979 9.19091 3.98052 8.70906 4.36683 8.40083L4.3677 8.40013L10.9177 3.15013ZM12.875 19.25C13.5611 19.25 14.125 18.6861 14.125 18V15C14.125 14.3138 13.5611 13.75 12.875 13.75C12.1889 13.75 11.625 14.3138 11.625 15V18C11.625 18.6861 12.1889 19.25 12.875 19.25Z" fill="#FFE174" stroke="#FFE174"/>
</svg>
