<svg width="25" height="24" viewBox="0 0 25 24" fill="none" xmlns="http://www.w3.org/2000/svg">
<path d="M12.2979 10.3692C12.184 10.3601 12.0601 10.3604 11.9436 10.3692C9.84702 10.2839 8.185 8.56159 8.185 6.44C8.185 4.26541 9.94187 2.5 12.125 2.5C14.2985 2.5 16.0645 4.26563 16.065 6.43905C16.0556 8.56159 14.393 10.2832 12.2979 10.3692Z" fill="#FFE174" stroke="#FFE174" stroke-linecap="round" stroke-linejoin="round"/>
<path d="M7.56305 20.0144L7.56195 20.0137C6.45634 19.2782 5.97 18.3571 5.97 17.4987C5.97 16.6403 6.45644 15.7167 7.56223 14.9761C8.84317 14.1271 10.5585 13.6875 12.2975 13.6875C14.037 13.6875 15.747 14.1274 17.0173 14.9758L17.018 14.9763C18.1237 15.7118 18.61 16.6329 18.61 17.4913C18.61 18.3499 18.1233 19.2738 17.017 20.0144C15.7414 20.8679 14.0289 21.31 12.29 21.31C10.5511 21.31 8.83857 20.8679 7.56305 20.0144Z" fill="#FFE174" stroke="#FFE174" stroke-linecap="round" stroke-linejoin="round"/>
</svg>
