<svg width="16" height="16" viewBox="0 0 16 16" fill="none" xmlns="http://www.w3.org/2000/svg">
<g id="star">
<path id="Vector" d="M8.64132 3.064L9.936 5.67533C10.0333 5.872 10.2213 6.00801 10.4393 6.03935L13.4279 6.47131C13.9759 6.55065 14.1946 7.22266 13.798 7.60799L11.6373 9.70467C11.4793 9.858 11.4073 10.0787 11.4446 10.2953L11.9386 13.1647C12.0386 13.7467 11.4273 14.1907 10.9033 13.9167L8.31132 12.56C8.11666 12.458 7.88464 12.458 7.69064 12.56L5.10063 13.9153C4.57596 14.19 3.96261 13.7453 4.06328 13.162L4.55734 10.2953C4.59467 10.0787 4.52263 9.858 4.36463 9.70467L2.20398 7.60799C1.80665 7.22266 2.02527 6.55065 2.57394 6.47131L5.56262 6.03935C5.77996 6.00801 5.96796 5.872 6.06596 5.67533L7.36064 3.064C7.62131 2.534 8.37865 2.534 8.64132 3.064Z" fill="#D7B127"/>
</g>
</svg>
