<svg width="18" height="18" viewBox="0 0 18 18" fill="none" xmlns="http://www.w3.org/2000/svg">
<g id="thumbs-down (1)">
<path id="Vector (Stroke)" fill-rule="evenodd" clip-rule="evenodd" d="M15.5452 2.34446C15.3276 2.15773 15.0491 2.05737 14.7624 2.06244L14.7525 2.06261L13.3125 2.06253V9.18753H14.7624C15.0491 9.1926 15.3276 9.09233 15.5452 8.90559C15.7541 8.72629 15.8928 8.47933 15.9375 8.20844V3.04162C15.8928 2.77072 15.7541 2.52377 15.5452 2.34446ZM12.1875 9.63066V2.06253H4.28363C4.05754 2.05997 3.83814 2.13918 3.66587 2.28561C3.49359 2.43205 3.38004 2.63582 3.34613 2.85937L2.31112 9.60944C2.3111 9.60956 2.31114 9.60931 2.31112 9.60944C2.2908 9.74368 2.29983 9.88112 2.33768 10.0115C2.37557 10.142 2.44139 10.2627 2.53056 10.3653C2.61974 10.4678 2.73015 10.5498 2.85414 10.6054C2.97812 10.6611 3.11273 10.6891 3.24862 10.6876L3.25499 10.6875L7.49999 10.6875C7.81065 10.6875 8.06249 10.9394 8.06249 11.25V14.25C8.06249 14.6976 8.24028 15.1268 8.55675 15.4433C8.78957 15.6761 9.08341 15.8338 9.40068 15.901L12.1875 9.63066ZM13.1155 10.3125L10.264 16.7285C10.1737 16.9316 9.97229 17.0625 9.74999 17.0625C9.00407 17.0625 8.2887 16.7662 7.76125 16.2388C7.23381 15.7113 6.93749 14.9959 6.93749 14.25V11.8125H3.25796C2.96015 11.8154 2.66523 11.7538 2.39349 11.6318C2.12072 11.5094 1.87782 11.3291 1.68163 11.1035C1.48544 10.8779 1.34065 10.6123 1.25729 10.3252C1.17393 10.038 1.15399 9.73622 1.19886 9.44062L2.23385 2.69069C2.23383 2.69085 2.23388 2.69052 2.23385 2.69069C2.30853 2.19907 2.55837 1.75049 2.93726 1.42843C3.3154 1.10701 3.79673 0.932743 4.29292 0.937527H14.7479C15.3083 0.928914 15.8525 1.12568 16.2779 1.49082C16.7047 1.85711 16.982 2.36733 17.0574 2.92463C17.0608 2.94962 17.0625 2.97481 17.0625 3.00003V8.25003C17.0625 8.27524 17.0608 8.30043 17.0574 8.32543C16.982 8.88272 16.7047 9.39295 16.2779 9.75924C15.8525 10.1244 15.3083 10.3211 14.7479 10.3125H13.1155Z" fill="white"/>
</g>
</svg>
